<?xml version="1.0" encoding="utf-8"?>
<svg xmlns="http://www.w3.org/2000/svg" version="1.1" xlink="http://www.w3.org/1999/xlink" width="300.0000305175781" height="115.11161041259766" preserveAspectRatio="none" viewBox="200 0 100 59.537" overflow="visible" xmlns:bx="https://boxy-svg.com"><defs id="SvgjsDefs15752"/><g id="SvgjsG15753" transform="scale(0.6493506493506492)" opacity="1"><g id="SvgjsG15754" class="InFPdXIRq" light-content="false" fill="#000000" transform="translate(0, 0) scale(1)"><path d="M 308 0 L 462 0 L 462 5.354 L 308 5.354 L 308 0 Z M 308 0 L 311.333 0 L 311.333 82.455 L 308 82.455 L 308 0 Z M 462 82.455 L 431.2 82.455 L 431.2 77.101 L 462 77.101 L 462 82.455 Z M 405.02 82.455 L 308 82.455 L 308 77.101 L 405.02 77.101 L 405.02 82.455 Z M 462 82.455 L 458.667 82.455 L 458.667 0 L 462 0 L 462 82.455 Z" fill-rule="nonzero" style=""/></g><g id="SvgjsG15755" class="text" transform="matrix(0.614682, 0, 0, 0.60827, 311.124577, 73.068139)" light-content="false" fill="#000000" style=""><path d="M 106.049 -27.545 L 106.049 -80.935 C 106.729 -81.105 107.499 -81.215 108.359 -81.255 C 109.209 -81.295 109.979 -81.315 110.669 -81.315 C 114.179 -81.315 117.039 -80.575 119.269 -79.075 C 121.489 -77.575 123.239 -75.585 124.529 -73.105 C 125.809 -70.625 126.709 -67.755 127.219 -64.505 C 127.739 -61.255 127.989 -57.925 127.989 -54.495 C 127.989 -50.565 127.669 -46.945 127.029 -43.655 C 126.389 -40.365 125.319 -37.515 123.819 -35.115 C 122.329 -32.725 120.359 -30.845 117.919 -29.475 C 115.479 -28.105 112.459 -27.415 108.869 -27.415 L 107.459 -27.415 C 106.949 -27.415 106.479 -27.465 106.049 -27.545 Z M 144.039 -54.495 C 144.039 -61.685 143.199 -67.825 141.529 -72.915 C 139.859 -78.005 137.529 -82.195 134.539 -85.495 C 131.539 -88.785 127.889 -91.205 123.569 -92.745 C 119.249 -94.285 114.479 -95.055 109.259 -95.055 C 106.519 -95.055 103.569 -94.925 100.399 -94.665 C 97.239 -94.405 93.859 -93.895 90.259 -93.125 L 90.259 -15.615 C 93.339 -14.925 96.229 -14.435 98.929 -14.135 C 101.619 -13.835 104.379 -13.685 107.199 -13.685 C 112.589 -13.685 117.529 -14.435 122.029 -15.935 C 126.519 -17.435 130.389 -19.805 133.639 -23.055 C 136.889 -26.305 139.439 -30.525 141.279 -35.695 C 143.119 -40.875 144.039 -47.145 144.039 -54.495 Z M 187.539 -82.215 C 190.449 -82.215 193.269 -81.745 196.009 -80.805 C 198.749 -79.865 201.059 -78.795 202.939 -77.595 L 207.049 -90.175 C 206.449 -90.515 205.569 -91.035 204.419 -91.715 C 203.259 -92.395 201.779 -93.045 199.989 -93.635 C 198.189 -94.235 196.069 -94.775 193.639 -95.245 C 191.199 -95.715 188.439 -95.945 185.359 -95.945 C 180.569 -95.945 176.079 -95.075 171.879 -93.315 C 167.689 -91.565 164.049 -88.935 160.969 -85.425 C 157.889 -81.915 155.459 -77.575 153.659 -72.405 C 151.859 -67.225 150.959 -61.255 150.959 -54.495 C 150.959 -47.655 151.729 -41.645 153.269 -36.465 C 154.809 -31.295 156.999 -26.975 159.819 -23.505 C 162.639 -20.045 166.039 -17.435 170.019 -15.675 C 173.999 -13.925 178.469 -13.045 183.429 -13.045 C 189.079 -13.045 193.889 -13.475 197.869 -14.325 C 201.849 -15.185 204.779 -15.955 206.659 -16.635 L 206.659 -56.295 L 190.879 -56.295 L 190.879 -27.295 C 189.939 -27.125 188.909 -26.995 187.799 -26.905 C 186.679 -26.825 185.659 -26.775 184.719 -26.775 C 178.899 -26.775 174.489 -29.025 171.499 -33.515 C 168.499 -38.005 167.009 -45.005 167.009 -54.495 C 167.009 -58.605 167.369 -62.345 168.099 -65.725 C 168.819 -69.105 170.019 -72.015 171.689 -74.455 C 173.359 -76.895 175.479 -78.795 178.039 -80.165 C 180.609 -81.535 183.779 -82.215 187.539 -82.215 Z"/><path d="M 79.192 -13.634 L 79.192 -26.724 L 45.182 -26.724 L 45.182 -93.074 L 29.272 -93.074 L 29.272 -13.634 L 79.192 -13.634 Z" style="stroke-width: 1;"/></g><g id="SvgjsG15756" class="nPnd4I052u" transform="matrix(0.192885, 0, 0, 0.263481, 408.195654, 65.693986)" light-content="false" non-strokable="false" fill="#000000" style=""><path d="M6.125 52.211a3.12 3.12 0 0 1 0-4.418l16.668-16.668a3.12 3.12 0 0 1 4.418 0 3.12 3.12 0 0 1 0 4.418L12.754 50l14.457 14.457a3.12 3.12 0 0 1 0 4.418 3.128 3.128 0 0 1-4.422 0zm71.086-21.086a3.12 3.12 0 0 0-4.418 0 3.12 3.12 0 0 0 0 4.418L87.25 50 72.793 64.457a3.12 3.12 0 0 0 0 4.418c.61.61 1.41.914 2.21.914.802 0 1.599-.305 2.212-.914l16.668-16.668a3.12 3.12 0 0 0 0-4.418L77.215 31.121zM40.91 86.367a3.132 3.132 0 0 0 3.793-2.273l16.66-66.668a3.123 3.123 0 0 0-2.273-3.79 3.12 3.12 0 0 0-3.79 2.274L38.632 82.578a3.123 3.123 0 0 0 2.274 3.789z"/></g></g></svg>